<svg width="442" height="448" viewBox="0 0 442 448" fill="none" xmlns="http://www.w3.org/2000/svg">
<rect x="3.5" y="3.5" width="435" height="441" stroke="url(#paint0_linear)" stroke-width="7"/>
<path d="M189.288 90.5449H185.86V86H177.113V90.5322H173.584L173.381 82.9023H174.612C175.154 82.403 175.581 81.599 175.895 80.4902C176.208 79.3815 176.428 77.93 176.555 76.1357L177.075 67.5156H187.701V82.9023H189.618L189.288 90.5449ZM178.624 82.9023H183.981V70.626H180.63L180.325 75.7168C180.114 78.7721 179.547 81.1673 178.624 82.9023ZM201.717 86H198.124V80.7314H194.963V86H191.357V72.2637H194.963V77.7607H198.124V72.2637H201.717V86ZM209.893 86.2539C208.048 86.2539 206.609 85.7038 205.576 84.6035C204.544 83.5033 204.027 81.929 204.027 79.8809V78.7891C204.027 76.6224 204.501 74.9508 205.449 73.7744C206.397 72.598 207.756 72.0098 209.524 72.0098C211.251 72.0098 212.55 72.5641 213.422 73.6729C214.294 74.7731 214.738 76.4066 214.755 78.5732V80.3379H207.607C207.658 81.3535 207.882 82.0983 208.28 82.5723C208.678 83.0378 209.292 83.2705 210.121 83.2705C211.323 83.2705 212.326 82.86 213.13 82.0391L214.539 84.21C214.099 84.8193 213.46 85.3145 212.622 85.6953C211.784 86.0677 210.874 86.2539 209.893 86.2539ZM207.633 77.8242H211.226V77.4941C211.209 76.6732 211.073 76.0511 210.819 75.6279C210.565 75.2048 210.125 74.9932 209.499 74.9932C208.873 74.9932 208.416 75.2174 208.128 75.666C207.849 76.1146 207.684 76.834 207.633 77.8242ZM217.015 86V72.2637H222.004C223.604 72.2637 224.831 72.5938 225.686 73.2539C226.549 73.9141 226.98 74.862 226.98 76.0977C226.98 76.7324 226.794 77.3037 226.422 77.8115C226.058 78.3109 225.525 78.696 224.822 78.9668C225.677 79.1445 226.35 79.5042 226.841 80.0459C227.34 80.5791 227.59 81.2562 227.59 82.0771C227.59 84.6924 225.944 86 222.651 86H217.015ZM220.595 80.3125V83.042H222.74C223.206 83.042 223.532 82.9277 223.718 82.6992C223.904 82.4707 223.997 82.1364 223.997 81.6963C223.997 81.1885 223.896 80.833 223.692 80.6299C223.489 80.4268 223.197 80.321 222.816 80.3125H220.595ZM220.595 77.8369H222.055C222.537 77.8369 222.876 77.7354 223.07 77.5322C223.273 77.3206 223.375 77.0117 223.375 76.6055C223.375 75.7168 222.96 75.2555 222.131 75.2217H220.595V77.8369ZM240.082 86H236.489V80.7314H233.328V86H229.723V72.2637H233.328V77.7607H236.489V72.2637H240.082V86ZM242.291 78.6875C242.291 76.6055 242.782 74.972 243.764 73.7871C244.745 72.6022 246.104 72.0098 247.839 72.0098C249.591 72.0098 250.958 72.6022 251.939 73.7871C252.921 74.972 253.412 76.6139 253.412 78.7129V79.5889C253.412 81.6794 252.925 83.3128 251.952 84.4893C250.979 85.6657 249.616 86.2539 247.864 86.2539C246.104 86.2539 244.733 85.6657 243.751 84.4893C242.778 83.3044 242.291 81.6624 242.291 79.5635V78.6875ZM245.896 79.5889C245.896 82.0433 246.552 83.2705 247.864 83.2705C249.075 83.2705 249.726 82.2464 249.819 80.1982L249.832 78.6875C249.832 77.4349 249.659 76.5081 249.312 75.9072C248.965 75.2979 248.474 74.9932 247.839 74.9932C247.229 74.9932 246.751 75.2979 246.404 75.9072C246.066 76.5081 245.896 77.4349 245.896 78.6875V79.5889ZM262.451 72.2637H266.031V86H262.451V77.5576L259.252 86H255.646V72.2637H259.252V80.6934L262.451 72.2637ZM265.333 66.6777C265.333 67.8034 264.927 68.7132 264.114 69.4072C263.31 70.1012 262.248 70.4482 260.928 70.4482C259.599 70.4482 258.528 70.1012 257.716 69.4072C256.912 68.7132 256.51 67.8034 256.51 66.6777H259.138C259.138 67.2025 259.294 67.613 259.607 67.9092C259.929 68.1969 260.369 68.3408 260.928 68.3408C261.478 68.3408 261.91 68.1969 262.223 67.9092C262.536 67.613 262.692 67.2025 262.692 66.6777H265.333Z" fill="#102654"/>
<path d="M175.969 117.977C176.427 117.977 176.794 117.836 177.07 117.555C177.346 117.268 177.497 116.862 177.523 116.336H178.828C178.797 117.148 178.508 117.823 177.961 118.359C177.419 118.891 176.755 119.156 175.969 119.156C174.922 119.156 174.122 118.828 173.57 118.172C173.023 117.51 172.75 116.529 172.75 115.227V114.297C172.75 113.021 173.023 112.052 173.57 111.391C174.117 110.724 174.914 110.391 175.961 110.391C176.826 110.391 177.51 110.664 178.016 111.211C178.526 111.758 178.797 112.505 178.828 113.453H177.523C177.492 112.828 177.341 112.359 177.07 112.047C176.805 111.734 176.435 111.578 175.961 111.578C175.346 111.578 174.891 111.781 174.594 112.188C174.297 112.589 174.143 113.25 174.133 114.172V115.25C174.133 116.245 174.279 116.948 174.57 117.359C174.867 117.771 175.333 117.977 175.969 117.977ZM189.828 110.594C189.828 111.161 189.701 111.667 189.445 112.109C189.195 112.552 188.857 112.898 188.43 113.148C188.935 113.409 189.331 113.784 189.617 114.273C189.904 114.758 190.047 115.31 190.047 115.93C190.047 116.909 189.768 117.693 189.211 118.281C188.659 118.865 187.924 119.156 187.008 119.156C186.091 119.156 185.354 118.865 184.797 118.281C184.245 117.693 183.969 116.909 183.969 115.93C183.969 115.305 184.109 114.747 184.391 114.258C184.677 113.763 185.065 113.391 185.555 113.141C185.128 112.891 184.792 112.547 184.547 112.109C184.302 111.667 184.18 111.161 184.18 110.594C184.18 109.635 184.438 108.875 184.953 108.312C185.474 107.75 186.159 107.469 187.008 107.469C187.852 107.469 188.531 107.747 189.047 108.305C189.568 108.862 189.828 109.625 189.828 110.594ZM188.664 115.898C188.664 115.247 188.51 114.727 188.203 114.336C187.896 113.94 187.492 113.742 186.992 113.742C186.482 113.742 186.078 113.94 185.781 114.336C185.49 114.732 185.344 115.253 185.344 115.898C185.344 116.555 185.487 117.065 185.773 117.43C186.065 117.794 186.477 117.977 187.008 117.977C187.539 117.977 187.948 117.794 188.234 117.43C188.521 117.065 188.664 116.555 188.664 115.898ZM188.453 110.617C188.453 110.039 188.318 109.568 188.047 109.203C187.776 108.839 187.43 108.656 187.008 108.656C186.565 108.656 186.214 108.836 185.953 109.195C185.693 109.555 185.562 110.029 185.562 110.617C185.562 111.211 185.695 111.682 185.961 112.031C186.227 112.38 186.576 112.555 187.008 112.555C187.451 112.555 187.802 112.378 188.062 112.023C188.323 111.669 188.453 111.201 188.453 110.617ZM192.047 118.242C192.047 117.992 192.12 117.784 192.266 117.617C192.417 117.451 192.641 117.367 192.938 117.367C193.234 117.367 193.458 117.451 193.609 117.617C193.766 117.784 193.844 117.992 193.844 118.242C193.844 118.482 193.766 118.682 193.609 118.844C193.458 119.005 193.234 119.086 192.938 119.086C192.641 119.086 192.417 119.005 192.266 118.844C192.12 118.682 192.047 118.482 192.047 118.242ZM192.055 111.344C192.055 111.094 192.128 110.885 192.273 110.719C192.424 110.552 192.648 110.469 192.945 110.469C193.242 110.469 193.466 110.552 193.617 110.719C193.773 110.885 193.852 111.094 193.852 111.344C193.852 111.583 193.773 111.784 193.617 111.945C193.466 112.107 193.242 112.188 192.945 112.188C192.648 112.188 192.424 112.107 192.273 111.945C192.128 111.784 192.055 111.583 192.055 111.344ZM201.695 114.148C201.695 115.826 201.451 117.081 200.961 117.914C200.471 118.742 199.703 119.156 198.656 119.156C197.641 119.156 196.883 118.758 196.383 117.961C195.883 117.164 195.622 115.966 195.602 114.367V112.414C195.602 110.753 195.846 109.513 196.336 108.695C196.831 107.878 197.599 107.469 198.641 107.469C199.667 107.469 200.424 107.857 200.914 108.633C201.409 109.409 201.669 110.583 201.695 112.156V114.148ZM200.312 112.172C200.312 110.969 200.18 110.083 199.914 109.516C199.648 108.943 199.224 108.656 198.641 108.656C198.073 108.656 197.656 108.938 197.391 109.5C197.125 110.057 196.987 110.901 196.977 112.031V114.375C196.977 115.573 197.115 116.474 197.391 117.078C197.667 117.677 198.089 117.977 198.656 117.977C199.219 117.977 199.633 117.693 199.898 117.125C200.164 116.557 200.302 115.69 200.312 114.523V112.172ZM209.602 114.148C209.602 115.826 209.357 117.081 208.867 117.914C208.378 118.742 207.609 119.156 206.562 119.156C205.547 119.156 204.789 118.758 204.289 117.961C203.789 117.164 203.529 115.966 203.508 114.367V112.414C203.508 110.753 203.753 109.513 204.242 108.695C204.737 107.878 205.505 107.469 206.547 107.469C207.573 107.469 208.331 107.857 208.82 108.633C209.315 109.409 209.576 110.583 209.602 112.156V114.148ZM208.219 112.172C208.219 110.969 208.086 110.083 207.82 109.516C207.555 108.943 207.13 108.656 206.547 108.656C205.979 108.656 205.562 108.938 205.297 109.5C205.031 110.057 204.893 110.901 204.883 112.031V114.375C204.883 115.573 205.021 116.474 205.297 117.078C205.573 117.677 205.995 117.977 206.562 117.977C207.125 117.977 207.539 117.693 207.805 117.125C208.07 116.557 208.208 115.69 208.219 114.523V112.172ZM215.203 117.82L215.617 117.227C216.065 116.539 216.323 115.526 216.391 114.188L216.508 110.547H221.227V117.82H222.211V121.484H220.828V119H216.023V121.484H214.633L214.641 117.82H215.203ZM216.742 117.82H219.852V111.883H217.852L217.781 113.945C217.708 115.591 217.362 116.883 216.742 117.82ZM223.508 114.383C223.508 113.154 223.805 112.182 224.398 111.469C224.997 110.75 225.786 110.391 226.766 110.391C227.745 110.391 228.531 110.74 229.125 111.438C229.724 112.135 230.031 113.086 230.047 114.289V115.18C230.047 116.404 229.75 117.372 229.156 118.086C228.562 118.799 227.771 119.156 226.781 119.156C225.802 119.156 225.016 118.81 224.422 118.117C223.833 117.424 223.529 116.487 223.508 115.305V114.383ZM224.891 115.18C224.891 116.049 225.06 116.734 225.398 117.234C225.742 117.729 226.203 117.977 226.781 117.977C228 117.977 228.628 117.096 228.664 115.336V114.383C228.664 113.518 228.492 112.836 228.148 112.336C227.805 111.831 227.344 111.578 226.766 111.578C226.198 111.578 225.742 111.831 225.398 112.336C225.06 112.836 224.891 113.516 224.891 114.375V115.18ZM239.5 119H238.109V109.367L235.719 110.438V109.125L239.281 107.57H239.5V119ZM249.562 108.438L245.648 119H244.203L248.109 108.812H243.039V107.625H249.562V108.438ZM251.359 118.242C251.359 117.992 251.432 117.784 251.578 117.617C251.729 117.451 251.953 117.367 252.25 117.367C252.547 117.367 252.771 117.451 252.922 117.617C253.078 117.784 253.156 117.992 253.156 118.242C253.156 118.482 253.078 118.682 252.922 118.844C252.771 119.005 252.547 119.086 252.25 119.086C251.953 119.086 251.729 119.005 251.578 118.844C251.432 118.682 251.359 118.482 251.359 118.242ZM251.367 111.344C251.367 111.094 251.44 110.885 251.586 110.719C251.737 110.552 251.961 110.469 252.258 110.469C252.555 110.469 252.779 110.552 252.93 110.719C253.086 110.885 253.164 111.094 253.164 111.344C253.164 111.583 253.086 111.784 252.93 111.945C252.779 112.107 252.555 112.188 252.258 112.188C251.961 112.188 251.737 112.107 251.586 111.945C251.44 111.784 251.367 111.583 251.367 111.344ZM261.008 114.148C261.008 115.826 260.763 117.081 260.273 117.914C259.784 118.742 259.016 119.156 257.969 119.156C256.953 119.156 256.195 118.758 255.695 117.961C255.195 117.164 254.935 115.966 254.914 114.367V112.414C254.914 110.753 255.159 109.513 255.648 108.695C256.143 107.878 256.911 107.469 257.953 107.469C258.979 107.469 259.737 107.857 260.227 108.633C260.721 109.409 260.982 110.583 261.008 112.156V114.148ZM259.625 112.172C259.625 110.969 259.492 110.083 259.227 109.516C258.961 108.943 258.536 108.656 257.953 108.656C257.385 108.656 256.969 108.938 256.703 109.5C256.438 110.057 256.299 110.901 256.289 112.031V114.375C256.289 115.573 256.427 116.474 256.703 117.078C256.979 117.677 257.401 117.977 257.969 117.977C258.531 117.977 258.945 117.693 259.211 117.125C259.477 116.557 259.615 115.69 259.625 114.523V112.172ZM268.914 114.148C268.914 115.826 268.669 117.081 268.18 117.914C267.69 118.742 266.922 119.156 265.875 119.156C264.859 119.156 264.102 118.758 263.602 117.961C263.102 117.164 262.841 115.966 262.82 114.367V112.414C262.82 110.753 263.065 109.513 263.555 108.695C264.049 107.878 264.818 107.469 265.859 107.469C266.885 107.469 267.643 107.857 268.133 108.633C268.628 109.409 268.888 110.583 268.914 112.156V114.148ZM267.531 112.172C267.531 110.969 267.398 110.083 267.133 109.516C266.867 108.943 266.443 108.656 265.859 108.656C265.292 108.656 264.875 108.938 264.609 109.5C264.344 110.057 264.206 110.901 264.195 112.031V114.375C264.195 115.573 264.333 116.474 264.609 117.078C264.885 117.677 265.307 117.977 265.875 117.977C266.438 117.977 266.852 117.693 267.117 117.125C267.383 116.557 267.521 115.69 267.531 114.523V112.172Z" fill="#495A7D"/>
<rect x="118" y="316" width="206" height="64" fill="url(#paint1_linear)"/>
<path d="M166.17 348.52H165.42V352H163.697V343.469H165.42V346.879H166L167.482 343.469H169.58L167.494 347.441L169.814 352H167.764L166.17 348.52ZM173.754 347.26L174.903 343.469H176.754L174.416 350.324C174.151 351.004 173.864 351.471 173.555 351.725C173.25 351.979 172.883 352.111 172.454 352.123H172.266L171.856 352.1L171.827 350.67C171.866 350.686 171.993 350.693 172.207 350.693C172.426 350.693 172.59 350.645 172.7 350.547C172.813 350.449 172.911 350.23 172.993 349.891L173.075 349.58L170.637 343.469H172.483L173.754 347.26ZM184.257 352H182.534V344.904H180.003V352H178.28V343.469H184.257V352ZM190.429 343.469H192.152V352H190.429V346.352L187.915 352H186.187V343.469H187.915V349.123L190.429 343.469ZM199.478 344.904H197.369V352H195.64V344.904H193.566V343.469H199.478V344.904ZM202.885 346.533H203.904C204.768 346.533 205.455 346.779 205.967 347.271C206.479 347.76 206.734 348.414 206.734 349.234C206.734 350.051 206.484 350.713 205.984 351.221C205.484 351.725 204.822 351.984 203.998 352H201.156V343.469H202.885V346.533ZM202.885 347.963V350.57H203.928C204.264 350.57 204.527 350.445 204.719 350.195C204.914 349.941 205.012 349.617 205.012 349.223C205.012 348.852 204.916 348.551 204.725 348.32C204.537 348.086 204.275 347.967 203.939 347.963H202.885ZM215.798 350.254H213.448L212.991 352H211.169L213.835 343.469H215.411L218.095 352H216.255L215.798 350.254ZM213.823 348.818H215.417L214.62 345.777L213.823 348.818ZM224.279 344.904H221.22V346.533H222.239C223.103 346.533 223.79 346.779 224.302 347.271C224.814 347.76 225.07 348.414 225.07 349.234C225.07 350.051 224.82 350.713 224.32 351.221C223.82 351.725 223.157 351.984 222.333 352H219.491V343.469H224.279V344.904ZM221.22 347.963V350.57H222.263C222.599 350.57 222.862 350.445 223.054 350.195C223.249 349.941 223.347 349.617 223.347 349.223C223.347 348.852 223.251 348.551 223.06 348.32C222.872 348.086 222.611 347.967 222.275 347.963H221.22ZM232.654 348.502C232.654 349.646 232.382 350.535 231.839 351.168C231.3 351.801 230.55 352.117 229.589 352.117C228.632 352.117 227.88 351.805 227.334 351.18C226.787 350.551 226.509 349.672 226.502 348.543V347.084C226.502 345.912 226.773 344.998 227.316 344.342C227.859 343.682 228.613 343.352 229.578 343.352C230.527 343.352 231.275 343.676 231.822 344.324C232.369 344.969 232.646 345.875 232.654 347.043V348.502ZM230.925 347.072C230.925 346.303 230.816 345.73 230.597 345.355C230.379 344.98 230.039 344.793 229.578 344.793C229.121 344.793 228.783 344.975 228.564 345.338C228.345 345.697 228.232 346.246 228.224 346.984V348.502C228.224 349.248 228.336 349.799 228.558 350.154C228.781 350.506 229.125 350.682 229.589 350.682C230.039 350.682 230.373 350.51 230.591 350.166C230.81 349.818 230.921 349.281 230.925 348.555V347.072ZM240.473 352H238.756V348.35H236.213V352H234.49V343.469H236.213V346.92H238.756V343.469H240.473V352ZM246.868 348.309H244.184V350.57H247.36V352H242.461V343.469H247.348V344.904H244.184V346.92H246.868V348.309ZM251.206 343.469L252.817 349.639L254.423 343.469H256.673V352H254.944V349.691L255.102 346.135L253.397 352H252.225L250.52 346.135L250.679 349.691V352H248.956V343.469H251.206ZM263.068 348.309H260.384V350.57H263.56V352H258.661V343.469H263.548V344.904H260.384V346.92H263.068V348.309ZM271.138 352H269.421V348.35H266.879V352H265.156V343.469H266.879V346.92H269.421V343.469H271.138V352ZM278.477 344.904H276.367V352H274.639V344.904H272.564V343.469H278.477V344.904Z" fill="white"/>
<path opacity="0.48" d="M154.059 247H140.191V192.703L126.666 197.928V186.404L152.594 175.809H154.059V247ZM215.924 183.865L193.463 247H178.863L201.422 187.381H172.906V175.906H215.924V183.865ZM266.119 217.605C266.119 227.436 264.329 234.956 260.748 240.164C257.2 245.372 252.122 247.977 245.514 247.977C238.971 247.977 233.909 245.454 230.328 240.408C226.78 235.33 224.941 228.071 224.811 218.631V205.203C224.811 195.405 226.585 187.918 230.133 182.742C233.681 177.534 238.775 174.93 245.416 174.93C252.057 174.93 257.151 177.501 260.699 182.645C264.247 187.788 266.054 195.128 266.119 204.666V217.605ZM252.252 203.201C252.252 197.602 251.699 193.403 250.592 190.604C249.485 187.804 247.76 186.404 245.416 186.404C241.021 186.404 238.743 191.531 238.58 201.785V219.51C238.58 225.239 239.133 229.503 240.24 232.303C241.38 235.102 243.137 236.502 245.514 236.502C247.76 236.502 249.42 235.2 250.494 232.596C251.601 229.959 252.187 225.939 252.252 220.535V203.201ZM316.705 217.605C316.705 227.436 314.915 234.956 311.334 240.164C307.786 245.372 302.708 247.977 296.1 247.977C289.557 247.977 284.495 245.454 280.914 240.408C277.366 235.33 275.527 228.071 275.396 218.631V205.203C275.396 195.405 277.171 187.918 280.719 182.742C284.267 177.534 289.361 174.93 296.002 174.93C302.643 174.93 307.737 177.501 311.285 182.645C314.833 187.788 316.64 195.128 316.705 204.666V217.605ZM302.838 203.201C302.838 197.602 302.285 193.403 301.178 190.604C300.071 187.804 298.346 186.404 296.002 186.404C291.607 186.404 289.329 191.531 289.166 201.785V219.51C289.166 225.239 289.719 229.503 290.826 232.303C291.965 235.102 293.723 236.502 296.1 236.502C298.346 236.502 300.006 235.2 301.08 232.596C302.187 229.959 302.773 225.939 302.838 220.535V203.201Z" fill="#E8E8E8"/>
<path d="M159.035 257H150.715V224.422L142.6 227.557V220.643L158.156 214.285H159.035V257ZM196.154 219.119L182.678 257H173.918L187.453 221.229H170.344V214.344H196.154V219.119ZM226.271 239.363C226.271 245.262 225.197 249.773 223.049 252.898C220.92 256.023 217.873 257.586 213.908 257.586C209.982 257.586 206.945 256.072 204.797 253.045C202.668 249.998 201.564 245.643 201.486 239.979V231.922C201.486 226.043 202.551 221.551 204.68 218.445C206.809 215.32 209.865 213.758 213.85 213.758C217.834 213.758 220.891 215.301 223.02 218.387C225.148 221.473 226.232 225.877 226.271 231.6V239.363ZM217.951 230.721C217.951 227.361 217.619 224.842 216.955 223.162C216.291 221.482 215.256 220.643 213.85 220.643C211.213 220.643 209.846 223.719 209.748 229.871V240.506C209.748 243.943 210.08 246.502 210.744 248.182C211.428 249.861 212.482 250.701 213.908 250.701C215.256 250.701 216.252 249.92 216.896 248.357C217.561 246.775 217.912 244.363 217.951 241.121V230.721ZM256.623 239.363C256.623 245.262 255.549 249.773 253.4 252.898C251.271 256.023 248.225 257.586 244.26 257.586C240.334 257.586 237.297 256.072 235.148 253.045C233.02 249.998 231.916 245.643 231.838 239.979V231.922C231.838 226.043 232.902 221.551 235.031 218.445C237.16 215.32 240.217 213.758 244.201 213.758C248.186 213.758 251.242 215.301 253.371 218.387C255.5 221.473 256.584 225.877 256.623 231.6V239.363ZM248.303 230.721C248.303 227.361 247.971 224.842 247.307 223.162C246.643 221.482 245.607 220.643 244.201 220.643C241.564 220.643 240.197 223.719 240.1 229.871V240.506C240.1 243.943 240.432 246.502 241.096 248.182C241.779 249.861 242.834 250.701 244.26 250.701C245.607 250.701 246.604 249.92 247.248 248.357C247.912 246.775 248.264 244.363 248.303 241.121V230.721Z" fill="#103AAE"/>
<path fill-rule="evenodd" clip-rule="evenodd" d="M292.5 221H284V232H292.5C295.538 232 298 229.538 298 226.5C298 223.462 295.538 221 292.5 221ZM278 215V238H292.5C298.851 238 304 232.851 304 226.5C304 220.149 298.851 215 292.5 215H278Z" fill="#102654"/>
<path fill-rule="evenodd" clip-rule="evenodd" d="M274 232H280V238H274V232Z" fill="#102654"/>
<path fill-rule="evenodd" clip-rule="evenodd" d="M277.659 243.321V233H283.659V243.321H295V249.321H283.659V257H277.659V249.321H274V243.321H277.659Z" fill="#102654"/>
<defs>
<linearGradient id="paint0_linear" x1="9.98063" y1="5.22638e-06" x2="327.72" y2="518.087" gradientUnits="userSpaceOnUse">
<stop stop-color="#D10A42"/>
<stop offset="1" stop-color="#00359F"/>
</linearGradient>
<linearGradient id="paint1_linear" x1="158.734" y1="316" x2="313.995" y2="377.846" gradientUnits="userSpaceOnUse">
<stop stop-color="#ED0233"/>
<stop offset="1" stop-color="#003EB7"/>
</linearGradient>
</defs>
</svg>
